# xmcd CD database file
#
# Track frame offsets:
#	150
#	13447
#	27442
#	42185
#	57727
#	70207
#	84250
#	97029
#	110710
#	124670
#	145535
#	157810
#	168362
#	179540
#	191607
#	205212
#	223857
#	237102
#	256270
#	271072
#	291775
#	303845
#	319262
#	333152
#
# Disc length: 4588 seconds
#
# Revision: 0
# Processed by: cddbd v1.4PL0 Copyright (c) Steve Scherf et al.
# Submitted via: CDex 1.50beta10
#
DISCID=5d11ea18
DTITLE=Pee Wee Russell - Take Me To The Land Of Jazz
DYEAR=1900
DGENRE=Jazz
TTITLE0=Feelin' No Pain
TTITLE1=Crying All Day
TTITLE2=Hello, Lola
TTITLE3=One Hour (If I Could Be With You One Hour Tonight)
TTITLE4=Bugle Call Rag
TTITLE5=Who's Sorry Now
TTITLE6=Home Cooking
TTITLE7=The Lady In Red
TTITLE8=Love Is Just Around The Corner
TTITLE9=Serenade To A Shylock
TTITLE10=Dinah
TTITLE11=I've Found A New Baby
TTITLE12=Everybody Loves My Baby
TTITLE13=China Boy
TTITLE14=I Ain't Gonna Give Nobody None
TTITLE15=A Good Man Is Hard To Find - Part 3
TTITLE16=The Last Time I Saw Chicago
TTITLE17=That's A Plenty
TTITLE18=Snag It
TTITLE19=Peg O' My Heart
TTITLE20=Rose Of Washington Square
TTITLE21=D.A. Blues
TTITLE22=Take Me To The Land Of Jazz
TTITLE23=Muskogee Blues
EXTD=
EXTT0=
EXTT1=
EXTT2=
EXTT3=
EXTT4=
EXTT5=
EXTT6=
EXTT7=
EXTT8=
EXTT9=
EXTT10=
EXTT11=
EXTT12=
EXTT13=
EXTT14=
EXTT15=
EXTT16=
EXTT17=
EXTT18=
EXTT19=
EXTT20=
EXTT21=
EXTT22=
EXTT23=
PLAYORDER=
